# xmcd
#
# Track frame offsets: 
#        150
#        15395
#        28378
#        41689
#        54100
#        66689
#        78486
#        91482
#        106014
#        119379
#        132205
#        145322
#        159103
#        171904
#        187598
#        197332
#        213003
#        229975
#        249600
#
# Disc length: 3540 seconds
#
# Revision: 0
# Processed by: cddbd v1.5.2PL0 Copyright (c) Steve Scherf et al.
# Submitted via: ExactAudioCopyFreeDBPlugin 1.0
#
DISCID=f80dd213
DTITLE=Hurt, Mississippi John - Spike Driver Blues - The Complete 1928
DTITLE=Okeh Record
DYEAR=1928
DGENRE=Blues
TTITLE0=Frankie
TTITLE1=Nobody`s Dirty Business
TTITLE2=Stack O`Lee
TTITLE3=Candy Man Blues
TTITLE4=Blessed Be The Name
TTITLE5=Praying On The Old Camp Ground
TTITLE6=Blue Harvest Blues
TTITLE7=Spike Driver Blues
TTITLE8=Louis Collins (Aka The Angels Laid Him Away)
TTITLE9=Got The Blues (Can`t Be Satisfied)
TTITLE10=Ain`t No Tellin`
TTITLE11=Avalon Blues
TTITLE12=Big Leg Blues
TTITLE13=Salty Dog
TTITLE14=Shake That Thing
TTITLE15=Talking Casey
TTITLE16=Lonesome Blues
TTITLE17=Trouble, I`ve Had It All My Days
TTITLE18=Hot Time In The Old Town Tonight
EXTD=
EXTT0=
EXTT1=
EXTT2=
EXTT3=
EXTT4=
EXTT5=
EXTT6=
EXTT7=
EXTT8=
EXTT9=
EXTT10=
EXTT11=
EXTT12=
EXTT13=
EXTT14=
EXTT15=
EXTT16=
EXTT17=
EXTT18=
PLAYORDER=
